<svg xmlns="http://www.w3.org/2000/svg" xmlns:xlink="http://www.w3.org/1999/xlink" width="1500" zoomAndPan="magnify" viewBox="0 0 1125 1124.99995" height="1500" preserveAspectRatio="xMidYMid meet" version="1.0"><defs><g/><clipPath id="8efd10e862"><path d="M 121.804688 410.179688 L 189.636719 410.179688 L 189.636719 478.015625 L 121.804688 478.015625 Z M 121.804688 410.179688 " clip-rule="nonzero"/></clipPath><clipPath id="f4a1f85e80"><path d="M 155.722656 410.179688 C 153.492188 410.179688 151.289062 410.394531 149.105469 410.832031 C 146.917969 411.265625 144.796875 411.910156 142.742188 412.761719 C 140.683594 413.613281 138.730469 414.65625 136.878906 415.894531 C 135.027344 417.132812 133.3125 418.539062 131.738281 420.113281 C 130.164062 421.6875 128.757812 423.402344 127.519531 425.253906 C 126.28125 427.105469 125.238281 429.058594 124.386719 431.117188 C 123.53125 433.175781 122.890625 435.296875 122.457031 437.480469 C 122.019531 439.664062 121.804688 441.871094 121.804688 444.097656 C 121.804688 446.324219 122.019531 448.527344 122.457031 450.714844 C 122.890625 452.898438 123.53125 455.019531 124.386719 457.074219 C 125.238281 459.132812 126.28125 461.089844 127.519531 462.941406 C 128.757812 464.792969 130.164062 466.503906 131.738281 468.078125 C 133.3125 469.65625 135.027344 471.058594 136.878906 472.296875 C 138.730469 473.535156 140.683594 474.578125 142.742188 475.433594 C 144.796875 476.285156 146.917969 476.925781 149.105469 477.363281 C 151.289062 477.796875 153.492188 478.015625 155.722656 478.015625 C 157.949219 478.015625 160.152344 477.796875 162.339844 477.363281 C 164.523438 476.925781 166.644531 476.285156 168.699219 475.433594 C 170.757812 474.578125 172.710938 473.535156 174.5625 472.296875 C 176.417969 471.058594 178.128906 469.65625 179.703125 468.078125 C 181.277344 466.503906 182.683594 464.792969 183.921875 462.941406 C 185.160156 461.089844 186.203125 459.132812 187.054688 457.074219 C 187.910156 455.019531 188.550781 452.898438 188.988281 450.714844 C 189.421875 448.527344 189.636719 446.324219 189.636719 444.097656 C 189.636719 441.871094 189.421875 439.664062 188.988281 437.480469 C 188.550781 435.296875 187.910156 433.175781 187.054688 431.117188 C 186.203125 429.058594 185.160156 427.105469 183.921875 425.253906 C 182.683594 423.402344 181.277344 421.6875 179.703125 420.113281 C 178.128906 418.539062 176.417969 417.132812 174.5625 415.894531 C 172.710938 414.65625 170.757812 413.613281 168.699219 412.761719 C 166.644531 411.910156 164.523438 411.265625 162.339844 410.832031 C 160.152344 410.394531 157.949219 410.179688 155.722656 410.179688 Z M 155.722656 410.179688 " clip-rule="nonzero"/></clipPath><clipPath id="a793887d2a"><path d="M 230.34375 410.179688 L 298.179688 410.179688 L 298.179688 478.015625 L 230.34375 478.015625 Z M 230.34375 410.179688 " clip-rule="nonzero"/></clipPath><clipPath id="359ff8f3b8"><path d="M 264.261719 410.179688 C 262.035156 410.179688 259.828125 410.394531 257.644531 410.832031 C 255.460938 411.265625 253.339844 411.910156 251.28125 412.761719 C 249.222656 413.613281 247.269531 414.65625 245.417969 415.894531 C 243.566406 417.132812 241.851562 418.539062 240.277344 420.113281 C 238.703125 421.6875 237.296875 423.402344 236.058594 425.253906 C 234.824219 427.105469 233.777344 429.058594 232.925781 431.117188 C 232.074219 433.175781 231.429688 435.296875 230.996094 437.480469 C 230.5625 439.664062 230.34375 441.871094 230.34375 444.097656 C 230.34375 446.324219 230.5625 448.527344 230.996094 450.714844 C 231.429688 452.898438 232.074219 455.019531 232.925781 457.078125 C 233.777344 459.132812 234.824219 461.089844 236.058594 462.941406 C 237.296875 464.792969 238.703125 466.503906 240.277344 468.078125 C 241.851562 469.65625 243.566406 471.0625 245.417969 472.296875 C 247.269531 473.535156 249.222656 474.578125 251.28125 475.433594 C 253.339844 476.285156 255.460938 476.929688 257.644531 477.363281 C 259.828125 477.796875 262.035156 478.015625 264.261719 478.015625 C 266.488281 478.015625 268.695312 477.796875 270.878906 477.363281 C 273.0625 476.929688 275.183594 476.285156 277.242188 475.433594 C 279.296875 474.578125 281.253906 473.535156 283.105469 472.296875 C 284.957031 471.0625 286.667969 469.65625 288.246094 468.078125 C 289.820312 466.503906 291.226562 464.792969 292.460938 462.941406 C 293.699219 461.089844 294.746094 459.132812 295.597656 457.078125 C 296.449219 455.019531 297.09375 452.898438 297.527344 450.714844 C 297.960938 448.527344 298.179688 446.324219 298.179688 444.097656 C 298.179688 441.871094 297.960938 439.664062 297.527344 437.480469 C 297.09375 435.296875 296.449219 433.175781 295.597656 431.117188 C 294.746094 429.058594 293.699219 427.105469 292.460938 425.253906 C 291.226562 423.402344 289.820312 421.6875 288.246094 420.113281 C 286.667969 418.539062 284.957031 417.132812 283.105469 415.894531 C 281.253906 414.65625 279.296875 413.613281 277.242188 412.761719 C 275.183594 411.910156 273.0625 411.265625 270.878906 410.832031 C 268.695312 410.394531 266.488281 410.179688 264.261719 410.179688 Z M 264.261719 410.179688 " clip-rule="nonzero"/></clipPath><clipPath id="b4ff71dc8a"><path d="M 338.882812 410.179688 L 406.71875 410.179688 L 406.71875 478.015625 L 338.882812 478.015625 Z M 338.882812 410.179688 " clip-rule="nonzero"/></clipPath><clipPath id="8fc540bb62"><path d="M 372.800781 410.179688 C 370.574219 410.179688 368.367188 410.394531 366.183594 410.832031 C 364 411.265625 361.878906 411.910156 359.820312 412.761719 C 357.765625 413.613281 355.808594 414.65625 353.957031 415.894531 C 352.105469 417.132812 350.394531 418.539062 348.820312 420.113281 C 347.242188 421.6875 345.835938 423.402344 344.601562 425.253906 C 343.363281 427.105469 342.316406 429.058594 341.464844 431.117188 C 340.613281 433.175781 339.96875 435.296875 339.535156 437.480469 C 339.101562 439.664062 338.882812 441.871094 338.882812 444.097656 C 338.882812 446.324219 339.101562 448.527344 339.535156 450.714844 C 339.96875 452.898438 340.613281 455.019531 341.464844 457.074219 C 342.316406 459.132812 343.363281 461.089844 344.601562 462.941406 C 345.835938 464.792969 347.242188 466.503906 348.820312 468.078125 C 350.394531 469.65625 352.105469 471.058594 353.957031 472.296875 C 355.808594 473.535156 357.765625 474.578125 359.820312 475.433594 C 361.878906 476.285156 364 476.925781 366.183594 477.363281 C 368.367188 477.796875 370.574219 478.015625 372.800781 478.015625 C 375.027344 478.015625 377.234375 477.796875 379.417969 477.363281 C 381.601562 476.925781 383.722656 476.285156 385.78125 475.433594 C 387.839844 474.578125 389.792969 473.535156 391.644531 472.296875 C 393.496094 471.058594 395.210938 469.65625 396.785156 468.078125 C 398.359375 466.503906 399.765625 464.792969 401.003906 462.941406 C 402.242188 461.089844 403.285156 459.132812 404.136719 457.074219 C 404.988281 455.019531 405.632812 452.898438 406.066406 450.714844 C 406.5 448.527344 406.71875 446.324219 406.71875 444.097656 C 406.71875 441.871094 406.5 439.664062 406.066406 437.480469 C 405.632812 435.296875 404.988281 433.175781 404.136719 431.117188 C 403.285156 429.058594 402.242188 427.105469 401.003906 425.253906 C 399.765625 423.402344 398.359375 421.6875 396.785156 420.113281 C 395.210938 418.539062 393.496094 417.132812 391.644531 415.894531 C 389.792969 414.65625 387.839844 413.613281 385.78125 412.761719 C 383.722656 411.910156 381.601562 411.265625 379.417969 410.832031 C 377.234375 410.394531 375.027344 410.179688 372.800781 410.179688 Z M 372.800781 410.179688 " clip-rule="nonzero"/></clipPath></defs><g fill="#8c52ff" fill-opacity="1"><g transform="translate(112.500015, 599.656656)"><g><path d="M 59.4375 -61.9375 L 36.296875 -61.9375 L 36.296875 0 L 23.984375 0 L 23.984375 -61.9375 L 0.9375 -61.9375 L 0.9375 -73 L 59.4375 -73 Z M 59.4375 -61.9375 "/></g></g></g><g fill="#8c52ff" fill-opacity="1"><g transform="translate(218.759142, 599.656656)"><g><path d="M 21.90625 0 L 9.59375 0 L 9.59375 -73 L 21.90625 -73 Z M 21.90625 0 "/></g></g></g><g fill="#8c52ff" fill-opacity="1"><g transform="translate(296.13454, 599.656656)"><g><path d="M 41.921875 -73.3125 C 47.066406 -73.3125 52.085938 -72.316406 56.984375 -70.328125 C 61.890625 -68.347656 66.113281 -65.585938 69.65625 -62.046875 L 62.46875 -53.078125 C 59.820312 -55.929688 56.691406 -58.191406 53.078125 -59.859375 C 49.460938 -61.523438 45.8125 -62.359375 42.125 -62.359375 C 34.832031 -62.359375 28.664062 -59.875 23.625 -54.90625 C 18.582031 -49.9375 16.0625 -43.867188 16.0625 -36.703125 C 16.0625 -29.472656 18.582031 -23.375 23.625 -18.40625 C 28.664062 -13.4375 34.832031 -10.953125 42.125 -10.953125 C 49.707031 -10.953125 56.488281 -13.835938 62.46875 -19.609375 L 69.765625 -11.46875 C 66.015625 -7.78125 61.632812 -4.859375 56.625 -2.703125 C 51.613281 -0.554688 46.570312 0.515625 41.5 0.515625 C 30.789062 0.515625 21.785156 -3.046875 14.484375 -10.171875 C 7.191406 -17.296875 3.546875 -26.109375 3.546875 -36.609375 C 3.546875 -46.960938 7.242188 -55.664062 14.640625 -62.71875 C 22.046875 -69.78125 31.140625 -73.3125 41.921875 -73.3125 Z M 41.921875 -73.3125 "/></g></g></g><g fill="#8c52ff" fill-opacity="1"><g transform="translate(414.697918, 599.656656)"><g><path d="M 58.296875 0 L 34.3125 -32.21875 L 21.90625 -18.5625 L 21.90625 0 L 9.59375 0 L 9.59375 -73 L 21.90625 -73 L 21.90625 -35.25 L 56.734375 -73 L 71.21875 -73 L 42.96875 -41.8125 L 73.09375 0 Z M 58.296875 0 "/></g></g></g><g fill="#8c52ff" fill-opacity="1"><g transform="translate(535.451044, 599.656656)"><g><path d="M 61.734375 -61.9375 L 21.90625 -61.9375 L 21.90625 -42.234375 L 57.5625 -42.234375 L 57.5625 -31.1875 L 21.90625 -31.1875 L 21.90625 -11.046875 L 62.984375 -11.046875 L 62.984375 0 L 9.59375 0 L 9.59375 -73 L 61.734375 -73 Z M 61.734375 -61.9375 "/></g></g></g><g fill="#8c52ff" fill-opacity="1"><g transform="translate(649.739196, 599.656656)"><g><path d="M 59.4375 -61.9375 L 36.296875 -61.9375 L 36.296875 0 L 23.984375 0 L 23.984375 -61.9375 L 0.9375 -61.9375 L 0.9375 -73 L 59.4375 -73 Z M 59.4375 -61.9375 "/></g></g></g><g fill="#1f1203" fill-opacity="1"><g transform="translate(121.398516, 698.216584)"><g><path d="M 41.578125 0 L 32.453125 0 L 27.328125 -19.859375 C 27.140625 -20.566406 26.816406 -22.023438 26.359375 -24.234375 C 25.898438 -26.453125 25.640625 -27.941406 25.578125 -28.703125 C 25.472656 -27.765625 25.210938 -26.265625 24.796875 -24.203125 C 24.378906 -22.148438 24.0625 -20.6875 23.84375 -19.8125 L 18.75 0 L 9.640625 0 L 0 -37.796875 L 7.890625 -37.796875 L 12.71875 -17.171875 C 13.5625 -13.359375 14.175781 -10.054688 14.5625 -7.265625 C 14.664062 -8.242188 14.898438 -9.765625 15.265625 -11.828125 C 15.640625 -13.890625 15.988281 -15.488281 16.3125 -16.625 L 21.828125 -37.796875 L 29.390625 -37.796875 L 34.90625 -16.625 C 35.144531 -15.675781 35.445312 -14.226562 35.8125 -12.28125 C 36.175781 -10.332031 36.453125 -8.660156 36.640625 -7.265625 C 36.804688 -8.609375 37.078125 -10.285156 37.453125 -12.296875 C 37.835938 -14.304688 38.1875 -15.929688 38.5 -17.171875 L 43.3125 -37.796875 L 51.1875 -37.796875 Z M 41.578125 0 "/></g></g></g><g fill="#1f1203" fill-opacity="1"><g transform="translate(186.884356, 698.216584)"><g><path d="M 27.90625 0 L 25.15625 -9 L 11.375 -9 L 8.640625 0 L 0 0 L 13.34375 -37.953125 L 23.140625 -37.953125 L 36.53125 0 Z M 23.25 -15.71875 C 20.707031 -23.875 19.273438 -28.484375 18.953125 -29.546875 C 18.640625 -30.617188 18.414062 -31.46875 18.28125 -32.09375 C 17.707031 -29.882812 16.078125 -24.425781 13.390625 -15.71875 Z M 23.25 -15.71875 "/></g></g></g><g fill="#1f1203" fill-opacity="1"><g transform="translate(237.711998, 698.216584)"><g><path d="M 26.328125 -37.796875 L 34.421875 -37.796875 L 21.5625 0 L 12.828125 0 L 0 -37.796875 L 8.09375 -37.796875 L 15.203125 -15.3125 C 15.597656 -13.976562 16.003906 -12.425781 16.421875 -10.65625 C 16.847656 -8.894531 17.113281 -7.671875 17.21875 -6.984375 C 17.40625 -8.566406 18.050781 -11.34375 19.15625 -15.3125 Z M 26.328125 -37.796875 "/></g></g></g><g fill="#1f1203" fill-opacity="1"><g transform="translate(286.419765, 698.216584)"><g><path d="M 26.53125 0 L 4.75 0 L 4.75 -37.796875 L 26.53125 -37.796875 L 26.53125 -31.234375 L 12.765625 -31.234375 L 12.765625 -22.9375 L 25.578125 -22.9375 L 25.578125 -16.359375 L 12.765625 -16.359375 L 12.765625 -6.625 L 26.53125 -6.625 Z M 26.53125 0 "/></g></g></g><g clip-path="url(#8efd10e862)"><g clip-path="url(#f4a1f85e80)"><path fill="#8c52ff" d="M 121.804688 410.179688 L 189.636719 410.179688 L 189.636719 478.015625 L 121.804688 478.015625 Z M 121.804688 410.179688 " fill-opacity="1" fill-rule="nonzero"/></g></g><g clip-path="url(#a793887d2a)"><g clip-path="url(#359ff8f3b8)"><path fill="#1f1203" d="M 230.34375 410.179688 L 298.179688 410.179688 L 298.179688 478.015625 L 230.34375 478.015625 Z M 230.34375 410.179688 " fill-opacity="1" fill-rule="nonzero"/></g></g><g clip-path="url(#b4ff71dc8a)"><g clip-path="url(#8fc540bb62)"><path fill="#ff5757" d="M 338.882812 410.179688 L 406.71875 410.179688 L 406.71875 478.015625 L 338.882812 478.015625 Z M 338.882812 410.179688 " fill-opacity="1" fill-rule="nonzero"/></g></g></svg>